<svg height="512pt" viewBox="0 -51 512 512" width="512pt" xmlns="http://www.w3.org/2000/svg"><path d="m474.5 95h-158.5v-9.019531c0-4.144531-3.355469-7.5-7.5-7.5s-7.5 3.355469-7.5 7.5v9.019531h-90v-47.5c0-17.921875 14.578125-32.5 32.5-32.5h25c17.921875 0 32.5 14.578125 32.5 32.5v3.480469c0 4.140625 3.355469 7.5 7.5 7.5s7.5-3.359375 7.5-7.5v-3.480469c0-26.191406-21.308594-47.5-47.5-47.5h-25c-26.191406 0-47.5 21.308594-47.5 47.5v47.5h-158.5c-20.679688 0-37.5 16.820312-37.5 37.5v240c0 20.679688 16.820312 37.5 37.5 37.5h379.589844c4.144531 0 7.5-3.355469 7.5-7.5s-3.355469-7.5-7.5-7.5h-379.589844c-12.40625 0-22.5-10.09375-22.5-22.5v-240c0-12.40625 10.09375-22.5 22.5-22.5h437c12.40625 0 22.5 10.09375 22.5 22.5v240c0 12.40625-10.09375 22.5-22.5 22.5h-22.410156c-4.140625 0-7.5 3.355469-7.5 7.5s3.359375 7.5 7.5 7.5h22.410156c20.679688 0 37.5-16.820312 37.5-37.5v-240c0-20.679688-16.820312-37.5-37.5-37.5zm0 0"/><path d="m83.894531 167.5h7.125c4.140625 0 7.5-3.355469 7.5-7.5s-3.359375-7.5-7.5-7.5h-7.125c-15.160156 0-27.5 12.335938-27.5 27.5v145c0 15.164062 12.339844 27.5 27.5 27.5h145c15.164063 0 27.5-12.335938 27.5-27.5v-145c0-15.164062-12.335937-27.5-27.5-27.5h-102.875c-4.144531 0-7.5 3.355469-7.5 7.5s3.355469 7.5 7.5 7.5h102.878907c6.890624 0 12.5 5.605469 12.5 12.5v145c0 6.894531-5.609376 12.5-12.5 12.5h-13.378907v-27.5c0-26.191406-21.308593-47.5-47.5-47.5h-25c-26.191406 0-47.5 21.308594-47.5 47.5v27.5h-11.625c-6.890625 0-12.5-5.605469-12.5-12.5v-145c0-6.894531 5.609375-12.5 12.5-12.5zm26.625 142.5c0-17.921875 14.578125-32.5 32.5-32.5h25c17.921875 0 32.5 14.578125 32.5 32.5v27.5h-90zm0 0"/><path d="m459.589844 185v-5c0-15.164062-12.335938-27.5-27.5-27.5h-115c-15.160156 0-27.5 12.335938-27.5 27.5v5c0 15.164062 12.339844 27.5 27.5 27.5h115c15.164062 0 27.5-12.335938 27.5-27.5zm-155 0v-5c0-6.894531 5.609375-12.5 12.5-12.5h115c6.894531 0 12.5 5.605469 12.5 12.5v5c0 6.894531-5.605469 12.5-12.5 12.5h-115c-6.890625 0-12.5-5.605469-12.5-12.5zm0 0"/><path d="m411.90625 231.589844h-114.816406c-4.140625 0-7.5 3.355468-7.5 7.5 0 4.144531 3.359375 7.5 7.5 7.5h114.816406c4.144531 0 7.5-3.355469 7.5-7.5 0-4.144532-3.355469-7.5-7.5-7.5zm0 0"/><path d="m411.90625 265.679688h-114.816406c-4.140625 0-7.5 3.355468-7.5 7.5 0 4.140624 3.359375 7.5 7.5 7.5h114.816406c4.144531 0 7.5-3.359376 7.5-7.5 0-4.144532-3.355469-7.5-7.5-7.5zm0 0"/><path d="m411.90625 299.769531h-114.816406c-4.140625 0-7.5 3.355469-7.5 7.5 0 4.140625 3.359375 7.5 7.5 7.5h114.816406c4.144531 0 7.5-3.359375 7.5-7.5 0-4.144531-3.355469-7.5-7.5-7.5zm0 0"/><path d="m192.519531 215.710938c0-20.402344-16.597656-37-37-37-20.402343 0-37 16.597656-37 37 0 20.402343 16.597657 37 37 37 20.402344 0 37-16.597657 37-37zm-59 0c0-12.128907 9.867188-22 22-22 12.128907 0 22 9.871093 22 22 0 12.132812-9.871093 22-22 22-12.132812 0-22-9.867188-22-22zm0 0"/></svg>